<svg xmlns="http://www.w3.org/2000/svg" viewBox="0 0 841.9 595.3"><g fill="#61DAFB"><path d="M666.3 296.5c0-25.1-20.4-45.5-45.5-45.5-25.1 0-45.5 20.4-45.5 45.5s20.4 45.5 45.5 45.5c25.1 0 45.5-20.4 45.5-45.5zm-45.5 27.5c-15.2 0-27.5-12.3-27.5-27.5s12.3-27.5 27.5-27.5 27.5 12.3 27.5 27.5-12.3 27.5-27.5 27.5z"/><path d="M667.4 370.1c-7.1-12.3-16.2-23.2-27.1-32.2 11.1-9.1 20.2-20.1 27.3-32.5 7.1-12.3 11.1-25.7 11.1-39.4s-4-27.1-11.1-39.4c-7.1-12.3-16.2-23.2-27.1-32.2 11.1-9.1 20.2-20.1 27.3-32.5 7.1-12.3 11.1-25.7 11.1-39.4s-4-27.1-11.1-39.4c-7.1-12.3-16.2-23.2-27.1-32.2 11.1-9.1 20.2-20.1 27.3-32.5 7.1-12.3 11.1-25.7 11.1-39.4s-4-27.1-11.1-39.4c-7.1-12.3-16.2-23.2-27.1-32.2 11.1-9.1 20.2-20.1 27.3-32.5 7.1-12.3 11.1-25.7 11.1-39.4s-4-27.1-11.1-39.4c-7.1-12.3-16.2-23.2-27.1-32.2 11.1-9.1 20.2-20.1 27.3-32.5 7.1-12.3 11.1-25.7 11.1-39.4s-4-27.1-11.1-39.4c-7.1-12.3-16.2-23.2-27.1-32.2 11.1-9.1 20.2-20.1 27.3-32.5 7.1-12.3 11.1-25.7 11.1-39.4s-4-27.1-11.1-39.4c-7.1-12.3-16.2-23.2-27.1-32.2 11.1-9.1 20.2-20.1 27.3-32.5 7.1-12.3 11.1-25.7 11.1-39.4s-4-27.1-11.1-39.4c-7.1-12.3-16.2-23.2-27.1-32.2 11.1-9.1 20.2-20.1 27.3-32.5 7.1-12.3 11.1-25.7 11.1-39.4s-4-27.1-11.1-39.4c-7.1-12.3-16.2-23.2-27.1-32.2 11.1-9.1 20.2-20.1 27.3-32.5 7.1-12.3 11.1-25.7 11.1-39.4s-4-27.1-11.1-39.4c-7.1-12.3-16.2-23.2-27.1-32.2 11.1-9.1 20.2-20.1 27.3-32.5 7.1-12.3 11.1-25.7 11.1-39.4s-4-27.1-11.1-39.4c-7.1-12.3-16.2-23.2-27.1-32.2 11.1-9.1 20.2-20.1 27.3-32.5 7.1-12.3 11.1-25.7 11.1-39.4s-4-27.1-11.1-39.4c-7.1-12.3-16.2-23.2-27.1-32.2 11.1-9.1 20.2-20.1 27.3-32.5 7.1-12.3 11.1-25.7 11.1-39.4s-4-27.1-11.1-39.4c-7.1-12.3-16.2-23.2-27.1-32.2 11.1-9.1 20.2-20.1 27.3-32.5 7.1-12.3 11.1-25.7 11.1-39.4s-4-27.1-11.1-39.4c-7.1-12.3-16.2-23.2-27.1-32.2 11.1-9.1 20.2-20.1 27.3-32.5 7.1-12.3 11.1-25.7 11.1-39.4s-4-27.1-11.1-39.4c-7.1-12.3-16.2-23.2-27.1-32.2 11.1-9.1 20.2-20.1 27.3-32.5 7.1-12.3 11.1-25.7 11.1-39.4s-4-27.1-11.1-39.4c-7.1-12.3-16.2-23.2-27.1-32.2 11.1-9.1 20.2-20.1 27.3-32.5 7.1-12.3 11.1-25.7 11.1-39.4s-4-27.1-11.1-39.4c-7.1-12.3-16.2-23.2-27.1-32.2 11.1-9.1 20.2-20.1 27.3-32.5 7.1-12.3 11.1-25.7 11.1-39.4s-4-27.1-11.1-39.4c-7.1-12.3-16.2-23.2-27.1-32.2 11.1-9.1 20.2-20.1 27.3-32.5 7.1-12.3 11.1-25.7 11.1-39.4s-4-27.1-11.1-39.4c-7.1-12.3-16.2-23.2-27.1-32.2 11.1-9.1 20.2-20.1 27.3-32.5 7.1-12.3 11.1-25.7 11.1-39.4s-4-27.1-11.1-39.4c-7.1-12.3-16.2-23.2-27.1-32.2 11.1-9.1 20.2-20.1 27.3-32.5 7.1-12.3 11.1-25.7 11.1-39.4s-4-27.1-11.1-39.4c-7.1-12.3-16.2-23.2-27.1-32.2 11.1-9.1 20.2-20.1 27.3-32.5 7.1-12.3 11.1-25.7 11.1-39.4s-4-27.1-11.1-39.4c-7.1-12.3-16.2-23.2-27.1-32.2 11.1-9.1 20.2-20.1 27.3-32.5 7.1-12.3 11.1-25.7 11.1-39.4s-4-27.1-11.1-39.4c-7.1-12.3-16.2-23.2-27.1-32.2 11.1-9.1 20.2-20.1 27.3-32.5 7.1-12.3 11.1-25.7 11.1-39.4s-4-27.1-11.1-39.4c-7.1-12.3-16.2-23.2-27.1-32.2z"/></g></svg>